<?xml version="1.0" encoding="utf-8"?>
<!-- Generator: Adobe Illustrator 16.0.0, SVG Export Plug-In . SVG Version: 6.00 Build 0)  -->
<!DOCTYPE svg PUBLIC "-//W3C//DTD SVG 1.1//EN" "http://www.w3.org/Graphics/SVG/1.1/DTD/svg11.dtd">
<svg version="1.1" id="Layer_1" xmlns="http://www.w3.org/2000/svg" xmlns:xlink="http://www.w3.org/1999/xlink" x="0px" y="0px"
	 width="283.571px" height="196.429px" viewBox="0 0 283.571 196.429" enable-background="new 0 0 283.571 196.429"
	 xml:space="preserve">
<path fill="#ED1C24" d="M219.442,140.748c-3.094,2.483-16.077,13.901-16.077,13.901s-20.993,7.287-40.433,8.843
	c-3.354,0.269-9.808,1.427-9.808,1.427s-41.911-8.617-57.326-17.914c-18.882-11.389-27.273-67.226-20.95-75.787
	c14.693-19.895,44.232-33.483,78.276-33.483c31.787,0,59.646,11.845,75.16,29.608C236.539,76.792,233.05,129.821,219.442,140.748z"
	/>
<path fill-rule="evenodd" clip-rule="evenodd" fill="#292929" d="M195.698,49.728c-17.071-11.294-35.889-14.6-55.803-12.429
	c-15.201,1.658-29.111,6.96-40.66,17.352c-17.979,16.179-17.813,39.969,0.033,55.819c17.438,15.488,38.04,20.522,60.647,18.496
	c7.33-0.658,14.89-1.641,21.158-6.348c-11.788,4.763-24.09,6.236-36.651,5.184c-12.238-1.025-23.938-3.923-33.607-12.154
	c-0.699-0.595-1.617-1.207-2.153-1.973c-1.786-1.508-3.012-3.875-4.006-5.82c-1.849-3.622-3.454-7.222-4.268-11.221
	c-1.485-4.49-2.124-9.454-1.918-14.334c0.007-0.189,0.019-0.378,0.032-0.566c0.264-4.744,1.311-9.376,3.14-13.374
	c2.135-8.914,7.826-16.959,15.237-20.777c24.1-12.413,48.911-11.653,72.74,1.423c26.436,14.505,24.434,42.469,9.765,59.387
	c-4.843,5.584-10.671,10.002-16.977,13.812c15.326-4.728,26.089-14.67,31.229-29.69C218.991,76.868,211.26,60.023,195.698,49.728z"
	/>
<path fill="#292929" d="M224.088,64.098c-0.415-0.366-0.928-0.626-2.067-0.718c4.38,3.085,5.137,6.734,4.849,10.486
	c0.088,0.26,0.162,0.536,0.212,0.839c0.259,1.64,0.438,3.27,0.554,4.896c2.211,7.541,4.342,14.403,2.866,22.496
	c-0.319,1.758-0.745,3.498-1.222,5.226c-0.094,1.448-0.219,2.864-0.395,4.204c-1.249,9.563-5.319,19.656-12.26,26.87
	c-1.713,2.935-3.722,5.676-6.203,7.999c-0.411,0.384-0.839,0.75-1.263,1.121c-1.122,1.502-2.268,2.794-4.07,3.215
	c-0.067,0.048-0.134,0.098-0.2,0.145c-0.386,0.983-1.084,1.868-2.05,2.494c-2.229,1.445-4.61,2.859-7.291,3.305
	c-0.104,0.018-0.206,0.018-0.31,0.029c-0.129,0.039-0.256,0.078-0.372,0.119c-4.065,1.438-23.022,5.895-28.355,6.162
	c-13.87,0.694-27.674,0.07-41.011-4.436c-3.118-1.054-6.157-2.23-9.113-3.533c-0.658-0.496-1.301-1.021-1.934-1.561
	c-1.683-0.542-3.225-1.391-4.706-2.352c-1.487-0.645-2.889-1.5-4.233-2.372c-0.579-0.376-1.045-0.856-1.424-1.385
	c-0.99-0.36-1.73-1.017-2.216-1.826c-1.421-0.831-2.411-2.278-3.521-3.782c-0.453-0.615-0.783-1.233-0.984-1.837
	c-3.401-2.675-6.024-6.353-7.641-10.653c-0.029-0.074-0.037-0.145-0.061-0.218c-1.759-2.848-3.215-6.097-4.432-9.226
	c-3.14-5.692-5.288-11.844-5.97-18.097c-0.292-0.436-0.534-0.935-0.677-1.543c-0.748-3.177-0.86-6.313-0.544-9.403
	c-0.344-0.647-0.514-1.44-0.436-2.384c0.221-2.669,0.754-5.242,1.521-7.741c0.093-0.891,0.26-1.754,0.489-2.593
	c0.259-2.686,0.861-5.351,1.943-7.978c-0.461-4.044,0.063-8.01,4.768-11.324c-1.14,0.091-1.652,0.352-2.067,0.718
	c-18.096,15.967-22.418,43.673-10.438,64.446c3.066,5.314,7.882,9.325,11.119,14.456c1.719,1.26,3.409,2.55,5.068,3.88
	c1.512,0.023,2.211,1.279,2.94,2.445c0.265,0.227,0.527,0.455,0.792,0.683c0.963,0.309,1.699,0.895,2.21,1.627
	c4.091,0.267,6.322,4.26,10.305,5.456c0.794,0.238,1.581,0.5,2.369,0.76c11.788,6.579,24.754,10.229,38.447,12.189
	c4.729,0.676,9.732,1.625,14.137,1.166c4.806-0.5,9.752-1.252,14.626-1.781c9.308-1.01,17.535-5.076,26.25-7.695
	c4.19-1.259,6.438-5.623,10.955-5.475c0.228-0.351,0.512-0.693,0.874-1.018c0.484-0.435,0.984-0.85,1.478-1.274
	c0.729-1.165,1.429-2.423,2.94-2.444c1.658-1.33,3.35-2.621,5.068-3.881c3.237-5.131,8.053-9.142,11.119-14.455
	C246.506,107.772,242.184,80.066,224.088,64.098z"/>
</svg>
